# xmcd
#
# Track frame offsets: 
#        150
#        16060
#        36402
#        49113
#        68576
#        84559
#        93775
#        110972
#        131549
#        143515
#        157678
#        171983
#        189996
#        208358
#        224839
#        235983
#        251260
#        265178
#        282446
#        301453
#        314174
#        338112
#
# Disc length: 4658 seconds
#
# Revision: 0
# Processed by: cddbd v1.5.2PL0 Copyright (c) Steve Scherf et al.
# Submitted via: ExactAudioCopy v0.95b4
#
DISCID=45123016
DTITLE=Various Artist - Estrogen Blues 2007 D2
DYEAR=2007
DGENRE=Other
TTITLE0=Christina Aguilera - Slow Down Baby
TTITLE1=Saint Etienne - Only Love Can Break Your Heart
TTITLE2=Bettie Serveert - Rudder
TTITLE3=Sia - Sunday
TTITLE4=Mindy Smith - Out Loud
TTITLE5=Smoosh - Free To Stay
TTITLE6=Regina Spektor - Fidelity
TTITLE7=Sara Tavares - Balance
TTITLE8=Tegan and Sara - Not Tonight
TTITLE9=Sandi Thom - When Horsepower Meant What It Said
TTITLE10=Beth Thornley - Done
TTITLE11=Tin Cup Prophette - 80 Days
TTITLE12=KT Tunstall - Stoppin' The Love
TTITLE13=Laura Veirs - Galaxies
TTITLE14=Viva Voce - Lesson No. 1
TTITLE15=The Weepies - Gotta Have You
TTITLE16=Katherine Whalen - You Who
TTITLE17=The Wreckers - The Good Kind
TTITLE18=Jonatha Brooke - Everything I Wanted
TTITLE19=The Dresden Dolls - My Alcoholic Friends
TTITLE20=Meredith Brooks - If We Kissed
TTITLE21=Neko Case - Lion's Jaws
EXTD=
EXTT0=
EXTT1=
EXTT2=
EXTT3=
EXTT4=
EXTT5=
EXTT6=
EXTT7=
EXTT8=
EXTT9=
EXTT10=
EXTT11=
EXTT12=
EXTT13=
EXTT14=
EXTT15=
EXTT16=
EXTT17=
EXTT18=
EXTT19=
EXTT20=
EXTT21=
PLAYORDER=
